<svg width="137" height="41" viewBox="0 0 137 41" fill="none" xmlns="http://www.w3.org/2000/svg">
<path d="M10.79 26V12.5H18.55C20.05 12.5 21.0533 12.9033 21.56 13.71C22.0667 14.5167 22.32 15.49 22.32 16.63C22.32 17.75 22.0533 18.6933 21.52 19.46C20.9867 20.2267 19.95 20.61 18.41 20.61H14.2V26H10.79ZM18.86 26L16 19.72L19.37 19.58L22.55 26H18.86ZM14.2 18.53H17.43C17.99 18.53 18.3767 18.37 18.59 18.05C18.8033 17.7233 18.91 17.2633 18.91 16.67C18.91 16.0833 18.8033 15.6267 18.59 15.3C18.3767 14.9733 17.99 14.81 17.43 14.81H14.2V18.53ZM29.8522 26.12C27.6122 26.12 26.0422 25.58 25.1422 24.5C24.2489 23.4133 23.8022 21.9367 23.8022 20.07C23.8022 18.1567 24.2522 16.6733 25.1522 15.62C26.0522 14.56 27.5989 14.03 29.7922 14.03C32.0389 14.03 33.5922 14.5667 34.4522 15.64C35.3189 16.7133 35.7522 18.1867 35.7522 20.06C35.7522 20.4333 35.7289 20.7667 35.6822 21.06H26.7422V19.03H32.5422L32.4222 19.33C32.4222 18.19 32.1889 17.3833 31.7222 16.91C31.2622 16.4367 30.6189 16.2 29.7922 16.2C28.9789 16.2 28.3189 16.4567 27.8122 16.97C27.3055 17.4833 27.0522 18.5167 27.0522 20.07C27.0522 21.59 27.3022 22.6167 27.8022 23.15C28.3089 23.6833 28.9922 23.95 29.8522 23.95V26.12ZM29.8522 23.95C30.3522 23.95 30.7655 23.8833 31.0922 23.75C31.4189 23.6167 31.6789 23.3933 31.8722 23.08C32.0722 22.7667 32.2422 22.3967 32.3822 21.97L35.3922 22.82C35.2455 23.6 34.9255 24.23 34.4322 24.71C33.9455 25.19 33.3555 25.5467 32.6622 25.78C31.9755 26.0067 31.0389 26.12 29.8522 26.12V23.95Z" fill="white" fill-opacity="0.7"/>
<path d="M43.253 26.08C40.8396 26.08 39.1863 25.4967 38.293 24.33C37.4063 23.1633 36.963 21.46 36.963 19.22C36.963 16.9733 37.4063 15.2733 38.293 14.12C39.1863 12.9667 40.8363 12.39 43.243 12.39C45.6563 12.39 47.2663 12.94 48.073 14.04C48.8796 15.14 49.283 16.4433 49.283 17.95H45.843C45.843 16.65 45.6163 15.7833 45.163 15.35C44.7163 14.9167 44.0696 14.7 43.223 14.7C42.3563 14.7 41.6696 14.9533 41.163 15.46C40.6563 15.96 40.403 17.2133 40.403 19.22C40.403 21.24 40.6563 22.5033 41.163 23.01C41.6763 23.5167 42.363 23.77 43.223 23.77C44.063 23.77 44.7096 23.5467 45.163 23.1C45.6163 22.6467 45.843 21.7867 45.843 20.52H49.283C49.283 21.9867 48.8796 23.28 48.073 24.4C47.2663 25.52 45.6596 26.08 43.253 26.08ZM56.7167 26.1C54.5434 26.1 52.9934 25.5767 52.0667 24.53C51.1401 23.4767 50.6767 21.9733 50.6767 20.02C50.6767 18.0733 51.1401 16.5867 52.0667 15.56C52.9934 14.5267 54.5434 14.01 56.7167 14.01C58.8834 14.01 60.4267 14.5267 61.3467 15.56C62.2734 16.5867 62.7367 18.0733 62.7367 20.02C62.7367 21.9733 62.2734 23.4767 61.3467 24.53C60.4267 25.5767 58.8834 26.1 56.7167 26.1ZM56.7167 23.82C57.4901 23.82 58.1267 23.5733 58.6267 23.08C59.1267 22.5867 59.3767 21.5733 59.3767 20.04C59.3767 18.5133 59.1267 17.5067 58.6267 17.02C58.1267 16.5333 57.4901 16.29 56.7167 16.29C55.9367 16.29 55.2967 16.5333 54.7967 17.02C54.2967 17.5067 54.0467 18.5133 54.0467 20.04C54.0467 21.5733 54.2967 22.5867 54.7967 23.08C55.2967 23.5733 55.9367 23.82 56.7167 23.82ZM64.3756 26V14.15H66.9756L67.7356 16.15V26H64.3756ZM72.1056 26V19.72C72.1056 18.4067 71.9456 17.5167 71.6256 17.05C71.3056 16.5833 70.8123 16.35 70.1456 16.35C69.4456 16.35 68.849 16.6367 68.3556 17.21C67.869 17.7767 67.6256 18.5133 67.6256 19.42L65.9956 18.66C65.9956 17.6133 66.4956 16.5833 67.4956 15.57C68.4956 14.55 69.8023 14.04 71.4156 14.04C72.9423 14.04 73.999 14.56 74.5856 15.6C75.1723 16.6333 75.4656 17.99 75.4656 19.67V26H72.1056ZM77.442 26V14.15H80.042L80.802 16.15V26H77.442ZM85.172 26V19.72C85.172 18.4067 85.012 17.5167 84.692 17.05C84.372 16.5833 83.8787 16.35 83.212 16.35C82.512 16.35 81.9154 16.6367 81.422 17.21C80.9354 17.7767 80.692 18.5133 80.692 19.42L79.062 18.66C79.062 17.6133 79.562 16.5833 80.562 15.57C81.562 14.55 82.8687 14.04 84.482 14.04C86.0087 14.04 87.0654 14.56 87.652 15.6C88.2387 16.6333 88.532 17.99 88.532 19.67V26H85.172ZM96.2584 26.12C94.0184 26.12 92.4484 25.58 91.5484 24.5C90.6551 23.4133 90.2084 21.9367 90.2084 20.07C90.2084 18.1567 90.6584 16.6733 91.5584 15.62C92.4584 14.56 94.0051 14.03 96.1984 14.03C98.4451 14.03 99.9984 14.5667 100.858 15.64C101.725 16.7133 102.158 18.1867 102.158 20.06C102.158 20.4333 102.135 20.7667 102.088 21.06H93.1484V19.03H98.9484L98.8284 19.33C98.8284 18.19 98.5951 17.3833 98.1284 16.91C97.6684 16.4367 97.0251 16.2 96.1984 16.2C95.3851 16.2 94.7251 16.4567 94.2184 16.97C93.7118 17.4833 93.4584 18.5167 93.4584 20.07C93.4584 21.59 93.7084 22.6167 94.2084 23.15C94.7151 23.6833 95.3984 23.95 96.2584 23.95V26.12ZM96.2584 23.95C96.7584 23.95 97.1718 23.8833 97.4984 23.75C97.8251 23.6167 98.0851 23.3933 98.2784 23.08C98.4784 22.7667 98.6484 22.3967 98.7884 21.97L101.798 22.82C101.652 23.6 101.332 24.23 100.838 24.71C100.352 25.19 99.7618 25.5467 99.0684 25.78C98.3818 26.0067 97.4451 26.12 96.2584 26.12V23.95ZM109.339 26.12C107.126 26.12 105.579 25.5967 104.699 24.55C103.826 23.4967 103.389 22.0133 103.389 20.1C103.389 18.14 103.826 16.64 104.699 15.6C105.579 14.56 107.126 14.04 109.339 14.04C111.306 14.04 112.669 14.4667 113.429 15.32C114.196 16.1733 114.643 17.07 114.769 18.01L111.779 19.05C111.726 18.1433 111.486 17.47 111.059 17.03C110.639 16.5833 110.066 16.36 109.339 16.36C108.619 16.36 108.019 16.61 107.539 17.11C107.059 17.61 106.819 18.6067 106.819 20.1C106.819 21.5333 107.059 22.51 107.539 23.03C108.019 23.55 108.619 23.81 109.339 23.81C110.066 23.81 110.639 23.5767 111.059 23.11C111.486 22.6433 111.726 21.99 111.779 21.15L114.769 22.23C114.643 23.1033 114.196 23.97 113.429 24.83C112.669 25.69 111.306 26.12 109.339 26.12ZM122.286 26.15C121.233 26.15 120.339 25.93 119.606 25.49C118.879 25.0433 118.516 24.24 118.516 23.08V16.46H115.806V14.15H118.516V11.44H121.886V14.15H125.526V16.46H121.886V22.34C121.886 22.9867 122.019 23.41 122.286 23.61C122.559 23.8033 122.943 23.9 123.436 23.9C123.929 23.9 124.413 23.8167 124.886 23.65V25.87C124.059 26.0567 123.193 26.15 122.286 26.15Z" fill="white"/>
</svg>
